# xmcd
#
# Track frame offsets:
#	150
#	10996
#	27464
#	41582
#	53048
#	80335
#	95240
#	106471
#	120167
#	135424
#	149506
#	155096
#	169744
#	183386
#	194261
#	204381
#
# Disc length: 2923 seconds
#
# Revision: 2
# Processed by: cddbd v1.5.1PL2 Copyright (c) Steve Scherf et al.
# Submitted via: audiograbber 1.82.02
#
DISCID=da0b6910
DTITLE=Various Artist - Complete Crooners - Disk 1
DYEAR=2005
DGENRE=Oldies
TTITLE0=Tom Jones - Green Green Grass Of Home
TTITLE1=Brook Benton - Endlessly
TTITLE2=Englebert Humperdink - Help Me Make It Through The Night
TTITLE3=Frank Sinatra - Blue Skys
TTITLE4=Vic Damone - MacArthur Park
TTITLE5=Tony Martin - Red Sails In The Sunset
TTITLE6=Mel Torme - I'm Getting Sentimental Over You
TTITLE7=Roger Whitaker - Mammy Blue
TTITLE8=Nat King Cole - Embraceable You
TTITLE9=Bing Crosby - Moonlight Becomes You
TTITLE10=Dean Martin - Baby It's Cold Outside
TTITLE11=Fred Astaire - Cheek To Cheek
TTITLE12=Tony Bennett - I've Grown Accustomed To Your Face
TTITLE13=Sammy Davis Jr. - Oh Lonesome Me
TTITLE14=Perry Como - For Me And My Gal
TTITLE15=Dick Haymes - Night And Day
EXTD=
EXTT0=
EXTT1=
EXTT2=
EXTT3=
EXTT4=
EXTT5=
EXTT6=
EXTT7=
EXTT8=
EXTT9=
EXTT10=
EXTT11=
EXTT12=
EXTT13=
EXTT14=
EXTT15=
PLAYORDER=
